<?xml version="1.0" encoding="UTF-8"?>
<svg width="174px" height="7px" viewBox="0 0 174 7" version="1.1" xmlns="http://www.w3.org/2000/svg" xmlns:xlink="http://www.w3.org/1999/xlink">
    <title>直线备份</title>
    <defs>
        <linearGradient x1="0%" y1="49.9989481%" x2="100%" y2="50.0016515%" id="linearGradient-1">
            <stop stop-color="#213783" stop-opacity="0" offset="0%"></stop>
            <stop stop-color="#B3CCFF" offset="48.4293051%"></stop>
            <stop stop-color="#B3CCFF" offset="100%"></stop>
        </linearGradient>
    </defs>
    <g id="页面-1" stroke="none" stroke-width="1" fill="none" fill-rule="evenodd">
        <g id="景点推荐助手-默认状态" transform="translate(-618, -140)" fill="url(#linearGradient-1)" fill-rule="nonzero">
            <g id="编组-4" transform="translate(364, 80)">
                <path id="直线备份" d="M427.657977,63.8467557 C427.738786,63.8092373 427.80431,63.7483934 427.844715,63.6733566 C427.947847,63.4818253 427.864242,63.248925 427.657977,63.1531594 L421.493184,60.290934 C421.435204,60.2640146 421.37127,60.25 421.306447,60.25 C421.075836,60.25 420.888889,60.4235936 420.888889,60.6377321 L420.888889,66.3621829 C420.888889,66.4223764 420.903982,66.4817433 420.932972,66.535582 C421.036104,66.7271133 421.28692,66.8047468 421.493184,66.7089811 L427.657977,63.8467557 Z M257.5,63.25 C257.638071,63.25 257.75,63.3619288 257.75,63.5 C257.75,63.6380712 257.638071,63.75 257.5,63.75 L254.5,63.75 C254.361929,63.75 254.25,63.6380712 254.25,63.5 C254.25,63.3619288 254.361929,63.25 254.5,63.25 Z M263.5,63.25 C263.638071,63.25 263.75,63.3619288 263.75,63.5 C263.75,63.6380712 263.638071,63.75 263.5,63.75 L260.5,63.75 C260.361929,63.75 260.25,63.6380712 260.25,63.5 C260.25,63.3619288 260.361929,63.25 260.5,63.25 Z M269.5,63.25 C269.638071,63.25 269.75,63.3619288 269.75,63.5 C269.75,63.6380712 269.638071,63.75 269.5,63.75 L266.5,63.75 C266.361929,63.75 266.25,63.6380712 266.25,63.5 C266.25,63.3619288 266.361929,63.25 266.5,63.25 Z M275.5,63.25 C275.638071,63.25 275.75,63.3619288 275.75,63.5 C275.75,63.6380712 275.638071,63.75 275.5,63.75 L272.5,63.75 C272.361929,63.75 272.25,63.6380712 272.25,63.5 C272.25,63.3619288 272.361929,63.25 272.5,63.25 Z M281.5,63.25 C281.638071,63.25 281.75,63.3619288 281.75,63.5 C281.75,63.6380712 281.638071,63.75 281.5,63.75 L278.5,63.75 C278.361929,63.75 278.25,63.6380712 278.25,63.5 C278.25,63.3619288 278.361929,63.25 278.5,63.25 Z M287.5,63.25 C287.638071,63.25 287.75,63.3619288 287.75,63.5 C287.75,63.6380712 287.638071,63.75 287.5,63.75 L284.5,63.75 C284.361929,63.75 284.25,63.6380712 284.25,63.5 C284.25,63.3619288 284.361929,63.25 284.5,63.25 Z M293.5,63.25 C293.638071,63.25 293.75,63.3619288 293.75,63.5 C293.75,63.6380712 293.638071,63.75 293.5,63.75 L290.5,63.75 C290.361929,63.75 290.25,63.6380712 290.25,63.5 C290.25,63.3619288 290.361929,63.25 290.5,63.25 Z M299.5,63.25 C299.638071,63.25 299.75,63.3619288 299.75,63.5 C299.75,63.6380712 299.638071,63.75 299.5,63.75 L296.5,63.75 C296.361929,63.75 296.25,63.6380712 296.25,63.5 C296.25,63.3619288 296.361929,63.25 296.5,63.25 Z M305.5,63.25 C305.638071,63.25 305.75,63.3619288 305.75,63.5 C305.75,63.6380712 305.638071,63.75 305.5,63.75 L302.5,63.75 C302.361929,63.75 302.25,63.6380712 302.25,63.5 C302.25,63.3619288 302.361929,63.25 302.5,63.25 Z M311.5,63.25 C311.638071,63.25 311.75,63.3619288 311.75,63.5 C311.75,63.6380712 311.638071,63.75 311.5,63.75 L308.5,63.75 C308.361929,63.75 308.25,63.6380712 308.25,63.5 C308.25,63.3619288 308.361929,63.25 308.5,63.25 Z M317.5,63.25 C317.638071,63.25 317.75,63.3619288 317.75,63.5 C317.75,63.6380712 317.638071,63.75 317.5,63.75 L314.5,63.75 C314.361929,63.75 314.25,63.6380712 314.25,63.5 C314.25,63.3619288 314.361929,63.25 314.5,63.25 Z M323.5,63.25 C323.638071,63.25 323.75,63.3619288 323.75,63.5 C323.75,63.6380712 323.638071,63.75 323.5,63.75 L320.5,63.75 C320.361929,63.75 320.25,63.6380712 320.25,63.5 C320.25,63.3619288 320.361929,63.25 320.5,63.25 Z M329.5,63.25 C329.638071,63.25 329.75,63.3619288 329.75,63.5 C329.75,63.6380712 329.638071,63.75 329.5,63.75 L326.5,63.75 C326.361929,63.75 326.25,63.6380712 326.25,63.5 C326.25,63.3619288 326.361929,63.25 326.5,63.25 Z M335.5,63.25 C335.638071,63.25 335.75,63.3619288 335.75,63.5 C335.75,63.6380712 335.638071,63.75 335.5,63.75 L332.5,63.75 C332.361929,63.75 332.25,63.6380712 332.25,63.5 C332.25,63.3619288 332.361929,63.25 332.5,63.25 Z M341.5,63.25 C341.638071,63.25 341.75,63.3619288 341.75,63.5 C341.75,63.6380712 341.638071,63.75 341.5,63.75 L338.5,63.75 C338.361929,63.75 338.25,63.6380712 338.25,63.5 C338.25,63.3619288 338.361929,63.25 338.5,63.25 Z M347.5,63.25 C347.638071,63.25 347.75,63.3619288 347.75,63.5 C347.75,63.6380712 347.638071,63.75 347.5,63.75 L344.5,63.75 C344.361929,63.75 344.25,63.6380712 344.25,63.5 C344.25,63.3619288 344.361929,63.25 344.5,63.25 Z M353.5,63.25 C353.638071,63.25 353.75,63.3619288 353.75,63.5 C353.75,63.6380712 353.638071,63.75 353.5,63.75 L350.5,63.75 C350.361929,63.75 350.25,63.6380712 350.25,63.5 C350.25,63.3619288 350.361929,63.25 350.5,63.25 Z M359.5,63.25 C359.638071,63.25 359.75,63.3619288 359.75,63.5 C359.75,63.6380712 359.638071,63.75 359.5,63.75 L356.5,63.75 C356.361929,63.75 356.25,63.6380712 356.25,63.5 C356.25,63.3619288 356.361929,63.25 356.5,63.25 Z M365.5,63.25 C365.638071,63.25 365.75,63.3619288 365.75,63.5 C365.75,63.6380712 365.638071,63.75 365.5,63.75 L362.5,63.75 C362.361929,63.75 362.25,63.6380712 362.25,63.5 C362.25,63.3619288 362.361929,63.25 362.5,63.25 Z M371.5,63.25 C371.638071,63.25 371.75,63.3619288 371.75,63.5 C371.75,63.6380712 371.638071,63.75 371.5,63.75 L368.5,63.75 C368.361929,63.75 368.25,63.6380712 368.25,63.5 C368.25,63.3619288 368.361929,63.25 368.5,63.25 Z M377.5,63.25 C377.638071,63.25 377.75,63.3619288 377.75,63.5 C377.75,63.6380712 377.638071,63.75 377.5,63.75 L374.5,63.75 C374.361929,63.75 374.25,63.6380712 374.25,63.5 C374.25,63.3619288 374.361929,63.25 374.5,63.25 Z M383.5,63.25 C383.638071,63.25 383.75,63.3619288 383.75,63.5 C383.75,63.6380712 383.638071,63.75 383.5,63.75 L380.5,63.75 C380.361929,63.75 380.25,63.6380712 380.25,63.5 C380.25,63.3619288 380.361929,63.25 380.5,63.25 Z M389.5,63.25 C389.638071,63.25 389.75,63.3619288 389.75,63.5 C389.75,63.6380712 389.638071,63.75 389.5,63.75 L386.5,63.75 C386.361929,63.75 386.25,63.6380712 386.25,63.5 C386.25,63.3619288 386.361929,63.25 386.5,63.25 Z M395.5,63.25 C395.638071,63.25 395.75,63.3619288 395.75,63.5 C395.75,63.6380712 395.638071,63.75 395.5,63.75 L392.5,63.75 C392.361929,63.75 392.25,63.6380712 392.25,63.5 C392.25,63.3619288 392.361929,63.25 392.5,63.25 Z M401.5,63.25 C401.638071,63.25 401.75,63.3619288 401.75,63.5 C401.75,63.6380712 401.638071,63.75 401.5,63.75 L398.5,63.75 C398.361929,63.75 398.25,63.6380712 398.25,63.5 C398.25,63.3619288 398.361929,63.25 398.5,63.25 Z M407.5,63.25 C407.638071,63.25 407.75,63.3619288 407.75,63.5 C407.75,63.6380712 407.638071,63.75 407.5,63.75 L404.5,63.75 C404.361929,63.75 404.25,63.6380712 404.25,63.5 C404.25,63.3619288 404.361929,63.25 404.5,63.25 Z M413.5,63.25 C413.638071,63.25 413.75,63.3619288 413.75,63.5 C413.75,63.6380712 413.638071,63.75 413.5,63.75 L410.5,63.75 C410.361929,63.75 410.25,63.6380712 410.25,63.5 C410.25,63.3619288 410.361929,63.25 410.5,63.25 Z M419.5,63.25 C419.638071,63.25 419.75,63.3619288 419.75,63.5 C419.75,63.6380712 419.638071,63.75 419.5,63.75 L416.5,63.75 C416.361929,63.75 416.25,63.6380712 416.25,63.5 C416.25,63.3619288 416.361929,63.25 416.5,63.25 Z"></path>
            </g>
        </g>
    </g>
</svg>