<?xml version="1.0" encoding="UTF-8"?>
<svg width="36px" height="36px" viewBox="0 0 36 36" version="1.1" xmlns="http://www.w3.org/2000/svg" xmlns:xlink="http://www.w3.org/1999/xlink">
    <title>位图备份</title>
    <defs>
        <circle id="path-1" cx="18" cy="18" r="18"></circle>
        <linearGradient x1="85.9726962%" y1="14.0273038%" x2="11.1262799%" y2="88.8737201%" id="linearGradient-3">
            <stop stop-color="#C766FF" offset="0%"></stop>
            <stop stop-color="#A56AFE" offset="20%"></stop>
            <stop stop-color="#5076FD" offset="62%"></stop>
            <stop stop-color="#0181FD" offset="100%"></stop>
        </linearGradient>
        <linearGradient x1="119.316455%" y1="-19.330855%" x2="-43.6106466%" y2="143.643123%" id="linearGradient-4">
            <stop stop-color="#C766FF" offset="0%"></stop>
            <stop stop-color="#A56AFE" offset="20%"></stop>
            <stop stop-color="#5076FD" offset="62%"></stop>
            <stop stop-color="#0181FD" offset="100%"></stop>
        </linearGradient>
        <linearGradient x1="191.09589%" y1="-91.0958904%" x2="-124.981975%" y2="225.126172%" id="linearGradient-5">
            <stop stop-color="#C766FF" offset="0%"></stop>
            <stop stop-color="#A56AFE" offset="20%"></stop>
            <stop stop-color="#5076FD" offset="62%"></stop>
            <stop stop-color="#0181FD" offset="100%"></stop>
        </linearGradient>
        <linearGradient x1="419.3302%" y1="-318.860165%" x2="-96.0634548%" y2="196.298472%" id="linearGradient-6">
            <stop stop-color="#C766FF" offset="0%"></stop>
            <stop stop-color="#A56AFE" offset="20%"></stop>
            <stop stop-color="#5076FD" offset="62%"></stop>
            <stop stop-color="#0181FD" offset="100%"></stop>
        </linearGradient>
    </defs>
    <g id="页面-1" stroke="none" stroke-width="1" fill="none" fill-rule="evenodd">
        <g id="景点推荐助手-默认状态" transform="translate(-388, -299)">
            <g id="编组-5" transform="translate(364, 275)">
                <g id="位图备份" transform="translate(24, 24)">
                    <mask id="mask-2" fill="white">
                        <use xlink:href="#path-1"></use>
                    </mask>
                    <use id="蒙版" fill="#FFFFFF" xlink:href="#path-1"></use>
                    <g id="AI-icon" mask="url(#mask-2)">
                        <g transform="translate(5, 5)" id="编组">
                            <g>
                                <path d="M13,26 C5.83003413,26 0,20.1699659 0,13 C0,5.83003413 5.83003413,0 13,0 C20.1699659,0 26,5.83003413 26,13 C26,20.1699659 20.1699659,26 13,26 Z M13,1.73037543 C6.7883959,1.73037543 1.73037543,6.7883959 1.73037543,13 C1.73037543,19.2116041 6.7883959,24.2696246 13,24.2696246 C19.2116041,24.2696246 24.2696246,19.2116041 24.2696246,13 C24.2696246,6.7883959 19.2116041,1.73037543 13,1.73037543 Z" id="形状" fill="#FFFFFF" fill-rule="nonzero"></path>
                                <path d="M10.2491468,14.1890785 L12.9112628,15.0409556 C13.6389078,15.2716724 14.2068259,15.8484642 14.4286689,16.5761092 L15.2450512,19.247099 C15.4047782,19.7795222 16.1590444,19.7795222 16.3276451,19.247099 L17.1795222,16.5849829 C17.4102389,15.8573379 17.9870307,15.2894198 18.7146758,15.0675768 L21.3856655,14.2511945 C21.9180887,14.0914676 21.9180887,13.3372014 21.3856655,13.1686007 L18.7235495,12.3167235 C17.9959044,12.0860068 17.4279863,11.509215 17.2061433,10.78157 L16.3897611,8.1105802 C16.2300341,7.578157 15.4757679,7.578157 15.3071672,8.1105802 L14.4641638,10.7726962 C14.2334471,11.5003413 13.6566553,12.0682594 12.9290102,12.2901024 L10.2580205,13.1064846 C9.72559727,13.2662116 9.72559727,14.0204778 10.2580205,14.1890785 L10.2491468,14.1890785 Z" id="路径" fill="#FFFFFF" fill-rule="nonzero"></path>
                                <path d="M6.79726962,8.60750853 L8.17269625,9.04232082 C8.54539249,9.15767918 8.83822526,9.45938567 8.95358362,9.83208191 L9.37952218,11.2075085 C9.45938567,11.4825939 9.84982935,11.4825939 9.93856655,11.2075085 L10.3733788,9.83208191 C10.4887372,9.45938567 10.7904437,9.1665529 11.1631399,9.05119454 L12.5385666,8.62525597 C12.8136519,8.54539249 12.8136519,8.15494881 12.5385666,8.0662116 L11.1631399,7.63139932 C10.7904437,7.51604096 10.4976109,7.21433447 10.3822526,6.84163823 L9.95631399,5.4662116 C9.87645051,5.19112628 9.48600683,5.19112628 9.39726962,5.4662116 L8.96245734,6.84163823 C8.84709898,7.21433447 8.54539249,7.50716724 8.17269625,7.6225256 L6.79726962,8.04846416 C6.5221843,8.12832765 6.5221843,8.51877133 6.79726962,8.60750853 Z" id="路径" fill="#FFFFFF" fill-rule="nonzero"></path>
                                <path d="M7.89761092,18.9986348 L8.74061433,19.2648464 C8.97133106,19.3358362 9.14880546,19.5221843 9.21979522,19.752901 L9.47713311,20.5959044 C9.53037543,20.7645051 9.76996587,20.7645051 9.82320819,20.5959044 L10.0894198,19.752901 C10.1604096,19.5221843 10.3467577,19.3447099 10.5774744,19.2737201 L11.4204778,19.0163823 C11.5890785,18.9631399 11.5890785,18.7235495 11.4204778,18.6703072 L10.5774744,18.4040956 C10.3467577,18.3331058 10.1692833,18.1467577 10.0982935,17.916041 L9.84095563,17.0730375 C9.78771331,16.9044369 9.54812287,16.9044369 9.49488055,17.0730375 L9.22866894,17.916041 C9.15767918,18.1467577 8.97133106,18.3242321 8.74061433,18.3952218 L7.89761092,18.6525597 C7.72901024,18.705802 7.72901024,18.9453925 7.89761092,18.9986348 L7.89761092,18.9986348 Z" id="路径" fill="#FFFFFF" fill-rule="nonzero"></path>
                            </g>
                            <g>
                                <path d="M13,26 C5.83003413,26 0,20.1699659 0,13 C0,5.83003413 5.83003413,0 13,0 C20.1699659,0 26,5.83003413 26,13 C26,20.1699659 20.1699659,26 13,26 Z M13,1.73037543 C6.7883959,1.73037543 1.73037543,6.7883959 1.73037543,13 C1.73037543,19.2116041 6.7883959,24.2696246 13,24.2696246 C19.2116041,24.2696246 24.2696246,19.2116041 24.2696246,13 C24.2696246,6.7883959 19.2116041,1.73037543 13,1.73037543 Z" id="形状" fill="url(#linearGradient-3)" fill-rule="nonzero"></path>
                                <path d="M10.2491468,14.1890785 L12.9112628,15.0409556 C13.6389078,15.2716724 14.2068259,15.8484642 14.4286689,16.5761092 L15.2450512,19.247099 C15.4047782,19.7795222 16.1590444,19.7795222 16.3276451,19.247099 L17.1795222,16.5849829 C17.4102389,15.8573379 17.9870307,15.2894198 18.7146758,15.0675768 L21.3856655,14.2511945 C21.9180887,14.0914676 21.9180887,13.3372014 21.3856655,13.1686007 L18.7235495,12.3167235 C17.9959044,12.0860068 17.4279863,11.509215 17.2061433,10.78157 L16.3897611,8.1105802 C16.2300341,7.578157 15.4757679,7.578157 15.3071672,8.1105802 L14.4641638,10.7726962 C14.2334471,11.5003413 13.6566553,12.0682594 12.9290102,12.2901024 L10.2580205,13.1064846 C9.72559727,13.2662116 9.72559727,14.0204778 10.2580205,14.1890785 L10.2491468,14.1890785 Z" id="路径" fill="url(#linearGradient-4)" fill-rule="nonzero"></path>
                                <path d="M6.79726962,8.60750853 L8.17269625,9.04232082 C8.54539249,9.15767918 8.83822526,9.45938567 8.95358362,9.83208191 L9.37952218,11.2075085 C9.45938567,11.4825939 9.84982935,11.4825939 9.93856655,11.2075085 L10.3733788,9.83208191 C10.4887372,9.45938567 10.7904437,9.1665529 11.1631399,9.05119454 L12.5385666,8.62525597 C12.8136519,8.54539249 12.8136519,8.15494881 12.5385666,8.0662116 L11.1631399,7.63139932 C10.7904437,7.51604096 10.4976109,7.21433447 10.3822526,6.84163823 L9.95631399,5.4662116 C9.87645051,5.19112628 9.48600683,5.19112628 9.39726962,5.4662116 L8.96245734,6.84163823 C8.84709898,7.21433447 8.54539249,7.50716724 8.17269625,7.6225256 L6.79726962,8.04846416 C6.5221843,8.12832765 6.5221843,8.51877133 6.79726962,8.60750853 Z" id="路径" fill="url(#linearGradient-5)" fill-rule="nonzero"></path>
                                <path d="M7.89761092,18.9986348 L8.74061433,19.2648464 C8.97133106,19.3358362 9.14880546,19.5221843 9.21979522,19.752901 L9.47713311,20.5959044 C9.53037543,20.7645051 9.76996587,20.7645051 9.82320819,20.5959044 L10.0894198,19.752901 C10.1604096,19.5221843 10.3467577,19.3447099 10.5774744,19.2737201 L11.4204778,19.0163823 C11.5890785,18.9631399 11.5890785,18.7235495 11.4204778,18.6703072 L10.5774744,18.4040956 C10.3467577,18.3331058 10.1692833,18.1467577 10.0982935,17.916041 L9.84095563,17.0730375 C9.78771331,16.9044369 9.54812287,16.9044369 9.49488055,17.0730375 L9.22866894,17.916041 C9.15767918,18.1467577 8.97133106,18.3242321 8.74061433,18.3952218 L7.89761092,18.6525597 C7.72901024,18.705802 7.72901024,18.9453925 7.89761092,18.9986348 L7.89761092,18.9986348 Z" id="路径" fill="url(#linearGradient-6)" fill-rule="nonzero"></path>
                            </g>
                        </g>
                    </g>
                </g>
            </g>
        </g>
    </g>
</svg>