<?xml version="1.0" encoding="UTF-8"?>
<svg width="24px" height="24px" viewBox="0 0 24 24" version="1.1" xmlns="http://www.w3.org/2000/svg" xmlns:xlink="http://www.w3.org/1999/xlink">
    <title>编组 19</title>
    <g id="页面-1" stroke="none" stroke-width="1" fill="none" fill-rule="evenodd">
        <g id="景点推荐助手-默认状态" transform="translate(-816, -131)">
            <g id="编组-4" transform="translate(364, 80)">
                <g id="编组-19" transform="translate(452, 51)">
                    <rect id="矩形" x="0" y="0" width="24" height="24"></rect>
                    <path d="M2.83750605,6.95429748 L8.66666667,5.26323024 L8.66666667,5.26323024 L8.66666667,20.9804615 L2.69671087,22.7123741 C2.24175655,22.8443585 1.76594869,22.5825396 1.63396428,22.1275853 C1.61143463,22.0499249 1.6,21.9694688 1.6,21.8886064 L1.6,8.60183282 C1.6,7.83848936 2.1043893,7.16697814 2.83750605,6.95429748 Z" id="矩形" fill="#33C964"></path>
                    <polygon id="矩形备份-10" fill="#0073E6" transform="translate(12.2, 14.4316) scale(-1, 1) translate(-12.2, -14.4316)" points="8.66666667 7.88276878 15.7333333 5.26323024 15.7333333 20.9804615 8.66666667 23.6"></polygon>
                    <path d="M15.7333333,7.88276878 L21.7925388,6.80855501 C22.2589776,6.72586183 22.704137,7.03694912 22.7868302,7.50338792 C22.7955932,7.55281613 22.8,7.6029182 22.8,7.65311717 L22.8,20.9090912 C22.8,21.7409926 22.2031228,22.4529953 21.3839946,22.5982155 L15.7333333,23.6 L15.7333333,23.6 L15.7333333,7.88276878 Z" id="矩形备份-13" fill="#33C964"></path>
                    <path d="M8.56611736,0.4 C5.93500497,0.402824447 3.80281135,2.4204594 3.79982653,4.91020718 C3.79982653,6.51953111 4.5857229,8.22520946 6.07464715,9.84324629 C6.74367202,10.5743942 7.4966555,11.2327727 8.31967846,11.8062115 C8.46892675,11.905146 8.66764096,11.905146 8.81688925,11.8062115 C9.63839658,11.2325339 10.3899171,10.5741639 11.0575876,9.84324629 C12.5443453,8.22520946 13.3324082,6.51953111 13.3324082,4.91020718 C13.3294234,2.4204594 11.1972298,0.402824447 8.56611736,0.4 L8.56611736,0.4 Z" id="路径" fill="#E55D27" fill-rule="nonzero"></path>
                    <path d="M8.56611736,6.49896907 C7.75616359,6.49896907 7.09956634,5.85647461 7.09956634,5.06391753 C7.09956634,4.27136044 7.75616359,3.62886598 8.56611736,3.62886598 C9.37607112,3.62886598 10.0326684,4.27136044 10.0326684,5.06391753 C10.0326684,5.85647461 9.37607112,6.49896907 8.56611736,6.49896907 Z" id="路径" fill="#FFFFFF" fill-rule="nonzero"></path>
                </g>
            </g>
        </g>
    </g>
</svg>