<?xml version="1.0" encoding="UTF-8"?>
<svg width="24px" height="24px" viewBox="0 0 24 24" version="1.1" xmlns="http://www.w3.org/2000/svg" xmlns:xlink="http://www.w3.org/1999/xlink">
    <title>编组 20</title>
    <g id="页面-1" stroke="none" stroke-width="1" fill="none" fill-rule="evenodd">
        <g id="景点推荐助手-默认状态" transform="translate(-816, -171)">
            <g id="编组-4" transform="translate(364, 80)">
                <g id="编组-7" transform="translate(452, 51)">
                    <g id="编组-20" transform="translate(0, 40)">
                        <rect id="矩形" x="0" y="0" width="24" height="24"></rect>
                        <g id="编组-54" transform="translate(0.8, 2.106)">
                            <line x1="6.253125" y1="2.73698547" x2="9.03229167" y2="2.73698547" id="路径-9" stroke="#0073E6" stroke-width="1.10318244"></line>
                            <line x1="6.60052083" y1="16.2511098" x2="9.03229167" y2="16.2511098" id="路径-9备份-2" stroke="#0073E6" stroke-width="1.10318244"></line>
                            <line x1="6.253125" y1="9.66730562" x2="9.03229167" y2="9.66730562" id="路径-9备份" stroke="#0073E6" stroke-width="1.10318244"></line>
                            <rect id="矩形" fill="#0073E6" x="0" y="0.294047619" width="6.67" height="4.88587571" rx="0.836897043"></rect>
                            <text id="K" font-family=".SFNS-Regular, .AppleSystemUIFont" font-size="4.8" font-weight="normal" fill="#FFFFFF">
                                <tspan x="1.56540799" y="4.57142857">K</tspan>
                            </text>
                            <path d="M9.73023038,0.294047619 L21.3258947,0.294047619 C21.7881002,0.294047619 22.1627917,0.668739188 22.1627917,1.13094466 C22.1627917,1.1534984 22.16188,1.17604293 22.1600588,1.19852302 L22.035423,2.73698547 C21.9236261,4.11696807 20.7710749,5.17992333 19.3865712,5.17992333 L9.73023038,5.17992333 C9.2680249,5.17992333 8.89333333,4.80523176 8.89333333,4.34302628 L8.89333333,1.13094466 C8.89333333,0.668739188 9.2680249,0.294047619 9.73023038,0.294047619 Z" id="矩形备份-17" fill="#0073E6"></path>
                            <rect id="矩形备份-12" fill="#0073E6" x="0" y="7.22436777" width="6.67" height="4.88587571" rx="0.836897043"></rect>
                            <path d="M9.71501695,7.22436777 L21.1542697,7.22436777 C21.6164752,7.22436777 21.9911667,7.59905934 21.9911667,8.06126481 C21.9911667,8.081268 21.9904496,8.10126476 21.9890166,8.12121656 L21.8779761,9.66730562 C21.7791072,11.0439219 20.6334556,12.1102435 19.2532934,12.1102435 L9.71501695,12.1102435 C9.25281148,12.1102435 8.87811991,11.7355519 8.87811991,11.2733464 L8.87811991,8.06126481 C8.87811991,7.59905934 9.25281148,7.22436777 9.71501695,7.22436777 Z" id="矩形备份-18" fill="#0073E6"></path>
                            <rect id="矩形备份-16" fill="#31BF5F" x="0" y="13.8081719" width="6.67" height="4.88587571" rx="0.836897043"></rect>
                            <path d="M21.3258947,14.2327466 L21.6122348,16.2168259 C21.5652668,16.7965822 21.2996788,17.309744 20.9004188,17.6779666 C20.5011588,18.0461893 19.9682269,18.2694729 19.3865712,18.2694729 L9.73023038,18.2694729 L9.31790801,14.645069 L21.3258947,14.2327466 Z" id="矩形备份-20" stroke="#31BF5F" stroke-width="0.849149358" fill="#31BF5F"></path>
                            <text id="V" font-family=".SFNS-Regular, .AppleSystemUIFont" font-size="4.8" font-weight="normal" fill="#FFFFFF">
                                <tspan x="14.0353299" y="4.57142857">V</tspan>
                            </text>
                        </g>
                    </g>
                </g>
            </g>
        </g>
    </g>
</svg>