<?xml version="1.0" encoding="UTF-8"?>
<svg width="24px" height="24px" viewBox="0 0 24 24" version="1.1" xmlns="http://www.w3.org/2000/svg" xmlns:xlink="http://www.w3.org/1999/xlink">
    <title>编组 18</title>
    <defs>
        <path d="M0.953760087,0 L11.4813685,0 L11.4813685,0 L17.6636438,6.12021858 L17.6636438,21.5841877 C17.6636438,22.1109348 17.2366309,22.5379478 16.7098837,22.5379478 L0.953760087,22.5379478 C0.427012936,22.5379478 2.22044605e-16,22.1109348 2.22044605e-16,21.5841877 L0,0.953760087 C-1.11022302e-16,0.427012936 0.427012936,3.33066907e-16 0.953760087,2.22044605e-16 Z" id="path-1"></path>
    </defs>
    <g id="页面-1" stroke="none" stroke-width="1" fill="none" fill-rule="evenodd">
        <g id="景点推荐助手-默认状态" transform="translate(-816, -211)">
            <g id="编组-4" transform="translate(364, 80)">
                <g id="编组-7" transform="translate(452, 51)">
                    <g id="编组-18" transform="translate(0, 80)">
                        <g id="编组-23备份" transform="translate(1.2, 0.3934)">
                            <g id="file-code备份-3">
                                <g id="路径">
                                    <mask id="mask-2" fill="white">
                                        <use xlink:href="#path-1"></use>
                                    </mask>
                                    <use id="蒙版" fill="#31BF5F" xlink:href="#path-1"></use>
                                    <path d="M12.4350222,6.09331639 L17.6636438,6.09331639 L17.6636438,6.09331639 L11.4812621,-0.201765573 L11.4812621,5.13955631 C11.4812621,5.66630346 11.9082751,6.09331639 12.4350222,6.09331639 Z" fill="#0C8834" fill-rule="nonzero" mask="url(#mask-2)"></path>
                                </g>
                                <text id="T" font-family=".SFNS-Regular, .AppleSystemUIFont" font-size="11.4" font-weight="normal" fill="#FFFFFF">
                                    <tspan x="3.43269281" y="12.9716628">T</tspan>
                                </text>
                            </g>
                            <ellipse id="椭圆形备份-3" stroke="#31BF5F" stroke-width="0.6" fill="#FFFFFF" cx="15.0177247" cy="17.4863388" rx="5.88227533" ry="5.82021858"></ellipse>
                            <path d="M17.6006651,19.8233871 L16.3873278,18.6369812 L16.4167993,18.6140953 C16.7159713,18.2574146 16.8875375,17.797727 16.8875375,17.3025869 C16.8875325,16.1968921 16.0065956,15.3005464 14.8637039,15.3005464 C13.720792,15.3005464 12.8097692,16.1968921 12.8097692,17.3025869 C12.8097692,18.4082509 13.720792,19.3370421 14.8637089,19.3370421 C15.1472688,19.3370421 15.4150757,19.2798942 15.6575205,19.1770823 L15.6902957,19.1514255 L16.9576154,20.4786256 C17.0463975,20.5690556 17.1903355,20.5690556 17.2791428,20.4786256 L17.6006702,20.1510192 C17.6894724,20.0605585 17.6894724,19.9138478 17.6006651,19.8233871 Z M14.8599771,18.6155886 C14.1178312,18.6155886 13.5262559,18.0335437 13.5262559,17.3155898 C13.5262559,16.5975845 14.1178312,16.0155396 14.8599771,16.0155396 C15.602123,16.0155396 16.1782978,16.5975845 16.1782978,17.3155898 C16.1782978,18.0335437 15.602123,18.6155886 14.8599771,18.6155886 Z" id="形状备份" fill="#31BF5F" fill-rule="nonzero"></path>
                        </g>
                        <rect id="矩形" x="0" y="0" width="24" height="23.6065574"></rect>
                    </g>
                </g>
            </g>
        </g>
    </g>
</svg>